{"glyphs":{"0":{"ha":1017,"x_min":0,"x_max":949,"o":"m 0 949 l 949 949 l 949 0 l 0 0 l 0 949 m 271 678 l 271 271 l 678 271 l 678 678 l 271 678 z "},"1":{"ha":339,"x_min":0,"x_max":271,"o":"m 271 0 l 0 0 l 0 949 l 271 949 l 271 0 z "},"2":{"ha":1017,"x_min":-203,"x_max":949,"o":"m 475 271 l 949 271 l 949 0 l -203 0 l 475 678 l 0 678 l 0 949 l 949 949 l 949 746 l 475 271 z "},"3":{"ha":1017,"x_min":-305,"x_max":949,"o":"m 678 678 l 0 678 l 0 949 l 949 949 l 949 0 l -305 0 l -34 271 l 678 271 l 678 678 m 0 339 l 0 610 l 610 610 l 610 339 l 0 339 z "},"4":{"ha":1017,"x_min":0,"x_max":949,"o":"m 0 949 l 271 949 l 271 407 l 678 407 l 678 949 l 949 949 l 949 0 l 678 -271 l 678 136 l 0 136 l 0 949 z "},"5":{"ha":1017,"x_min":0,"x_max":1153,"o":"m 949 949 l 949 678 l 271 678 l 271 610 l 1153 610 l 543 0 l 136 0 l 475 339 l 0 339 l 0 949 l 949 949 z "},"6":{"ha":1017,"x_min":0,"x_max":949,"o":"m 949 949 l 949 678 l 271 678 l 271 610 l 949 610 l 949 0 l 0 0 l 0 949 l 949 949 m 271 339 l 271 271 l 678 271 l 678 339 l 271 339 z "},"7":{"ha":1017,"x_min":0,"x_max":1153,"o":"m 475 678 l 0 678 l 0 949 l 1153 949 l 203 0 l 0 0 l 0 203 l 475 678 z "},"8":{"ha":1017,"x_min":0,"x_max":949,"o":"m 271 610 l 678 610 l 678 678 l 271 678 l 271 610 m 0 949 l 949 949 l 949 0 l 0 0 l 0 949 m 271 339 l 271 271 l 678 271 l 678 339 l 271 339 z "},"9":{"ha":1017,"x_min":0,"x_max":949,"o":"m 0 0 l 0 271 l 678 271 l 678 339 l 0 339 l 0 949 l 949 949 l 949 0 l 0 0 m 678 610 l 678 678 l 271 678 l 271 610 l 678 610 z "},"\u0000":{"ha":0,"x_min":0,"x_max":0,"o":""},"\u001d":{"ha":0,"x_min":0,"x_max":0,"o":""}," ":{"ha":345,"x_min":0,"x_max":0,"o":""}," ":{"ha":345,"x_min":0,"x_max":0,"o":""},"!":{"ha":339,"x_min":0,"x_max":271,"o":"m 271 0 l 0 0 l 0 271 l 271 271 l 271 0 m 271 339 l 0 339 l 0 949 l 271 949 l 271 339 z "},"\"":{"ha":678,"x_min":0,"x_max":610,"o":"m 271 543 l 0 543 l 0 949 l 271 949 l 271 543 m 610 543 l 339 543 l 339 949 l 610 949 l 610 543 z "},"#":{"ha":1017,"x_min":0,"x_max":949,"o":"m 136 407 l 136 543 l 0 543 l 0 814 l 136 814 l 136 949 l 407 949 l 407 814 l 543 814 l 543 949 l 814 949 l 814 814 l 949 814 l 949 543 l 814 543 l 814 407 l 949 407 l 949 136 l 814 136 l 814 0 l 543 -271 l 543 136 l 407 136 l 407 0 l 136 0 l 136 136 l 0 136 l 0 407 l 136 407 m 407 543 l 407 407 l 543 407 l 543 543 l 407 543 z "},"$":{"ha":1017,"x_min":0,"x_max":1153,"o":"m 339 949 l 339 1085 l 610 1085 l 610 949 l 949 949 l 949 678 l 271 678 l 271 610 l 1153 610 l 610 68 l 610 -136 l 339 -136 l 339 0 l 136 0 l 475 339 l 0 339 l 0 949 l 339 949 z "},"%":{"ha":1017,"x_min":-203,"x_max":1153,"o":"m 1153 949 l 203 0 l -203 0 l 746 949 l 1153 949 m 271 678 l 0 678 l 0 949 l 271 949 l 271 678 m 949 0 l 678 0 l 678 271 l 949 271 l 949 0 z "},"&":{"ha":1017,"x_min":0,"x_max":1255,"o":"m 543 949 l 543 678 l 271 678 l 271 271 l 610 271 l 610 339 l 339 339 l 339 610 l 610 610 l 610 746 l 882 746 l 882 610 l 949 610 l 949 339 l 882 339 l 882 271 l 983 271 l 1255 0 l 0 0 l 0 949 l 543 949 z "},"'":{"ha":339,"x_min":0,"x_max":271,"o":"m 271 678 l 0 407 l 0 949 l 271 949 l 271 678 z "},"(":{"ha":543,"x_min":0,"x_max":475,"o":"m 475 1017 l 475 746 l 271 746 l 271 203 l 475 203 l 475 -68 l 0 -68 l 0 1017 l 475 1017 z "},")":{"ha":543,"x_min":0,"x_max":475,"o":"m 0 1017 l 475 1017 l 475 -68 l 0 -68 l 0 203 l 203 203 l 203 746 l 0 746 l 0 1017 z "},"*":{"ha":678,"x_min":0,"x_max":610,"o":"m 441 780 l 610 780 l 610 509 l 441 509 l 441 339 l 170 339 l 170 509 l 0 509 l 0 780 l 170 780 l 170 949 l 441 949 l 441 780 z "},"+":{"ha":678,"x_min":0,"x_max":610,"o":"m 441 610 l 610 610 l 610 339 l 441 339 l 441 170 l 170 170 l 170 339 l 0 339 l 0 610 l 170 610 l 170 780 l 441 780 l 441 610 z "},",":{"ha":339,"x_min":0,"x_max":271,"o":"m 271 0 l 0 -271 l 0 271 l 271 271 l 271 0 z "},"-":{"ha":678,"x_min":0,"x_max":610,"o":"m 610 339 l 0 339 l 0 610 l 610 610 l 610 339 z "},"­":{"ha":678,"x_min":0,"x_max":610,"o":"m 610 339 l 0 339 l 0 610 l 610 610 l 610 339 z "},".":{"ha":339,"x_min":0,"x_max":271,"o":"m 271 0 l 0 0 l 0 271 l 271 271 l 271 0 z "},"/":{"ha":1017,"x_min":-203,"x_max":1153,"o":"m 1153 949 l 203 0 l -203 0 l 746 949 l 1153 949 z "},":":{"ha":339,"x_min":0,"x_max":271,"o":"m 271 0 l 0 0 l 0 271 l 271 271 l 271 0 m 271 423 l 0 423 l 0 694 l 271 694 l 271 423 z "},";":{"ha":339,"x_min":0,"x_max":271,"o":"m 271 0 l 0 -271 l 0 271 l 271 271 l 271 0 m 271 423 l 0 423 l 0 694 l 271 694 l 271 423 z "},";":{"ha":339,"x_min":0,"x_max":271,"o":"m 271 0 l 0 -271 l 0 271 l 271 271 l 271 0 m 271 423 l 0 423 l 0 694 l 271 694 l 271 423 z "},"<":{"ha":746,"x_min":0,"x_max":882,"o":"m 475 949 l 882 949 l 407 475 l 678 203 l 678 -203 l 0 475 l 475 949 z "},"=":{"ha":678,"x_min":0,"x_max":610,"o":"m 610 509 l 0 509 l 0 780 l 610 780 l 610 509 m 610 170 l 0 170 l 0 441 l 610 441 l 610 170 z "},">":{"ha":746,"x_min":-203,"x_max":678,"o":"m 203 949 l 678 475 l 0 -203 l 0 203 l 271 475 l -203 949 l 203 949 z "},"?":{"ha":1017,"x_min":0,"x_max":949,"o":"m 678 678 l 0 678 l 0 949 l 949 949 l 949 339 l 203 339 l 203 610 l 678 610 l 678 678 m 475 0 l 203 0 l 203 271 l 475 271 l 475 0 z "},"@":{"ha":1017,"x_min":0,"x_max":949,"o":"m 271 271 l 949 271 l 949 0 l 0 0 l 0 949 l 949 949 l 949 339 l 339 339 l 339 610 l 678 610 l 678 678 l 271 678 l 271 271 z "},"A":{"ha":1017,"x_min":0,"x_max":949,"o":"m 0 949 l 949 949 l 949 0 l 678 0 l 678 271 l 271 271 l 271 0 l 0 0 l 0 949 m 271 678 l 271 543 l 678 543 l 678 678 l 271 678 z "},"B":{"ha":1017,"x_min":-305,"x_max":949,"o":"m 678 339 l 271 339 l 271 271 l 678 271 l 678 339 m 678 678 l -34 678 l -305 949 l 949 949 l 949 0 l 0 0 l 0 610 l 678 610 l 678 678 z "},"C":{"ha":1017,"x_min":0,"x_max":949,"o":"m 0 339 l 0 949 l 949 949 l 949 678 l 271 678 l 271 475 l 610 136 l 949 475 l 949 68 l 610 -271 l 0 339 z "},"D":{"ha":1017,"x_min":0,"x_max":949,"o":"m 271 678 l 271 0 l 0 0 l 0 949 l 949 949 l 949 339 l 339 -271 l 339 136 l 678 475 l 678 678 l 271 678 z "},"E":{"ha":1017,"x_min":0,"x_max":1255,"o":"m 949 949 l 949 678 l 271 678 l 271 271 l 983 271 l 1255 0 l 0 0 l 0 949 l 949 949 m 949 339 l 339 339 l 339 610 l 949 610 l 949 339 z "},"F":{"ha":1017,"x_min":0,"x_max":949,"o":"m 271 678 l 271 -271 l 0 0 l 0 949 l 949 949 l 949 678 l 271 678 m 949 339 l 339 339 l 339 610 l 949 610 l 949 339 z "},"G":{"ha":1017,"x_min":0,"x_max":949,"o":"m 949 949 l 949 678 l 271 678 l 271 271 l 678 271 l 678 339 l 339 339 l 339 610 l 949 610 l 949 0 l 0 0 l 0 949 l 949 949 z "},"H":{"ha":1017,"x_min":0,"x_max":949,"o":"m 271 339 l 271 0 l 0 0 l 0 949 l 271 949 l 271 610 l 678 610 l 678 949 l 949 949 l 949 0 l 678 -271 l 678 339 l 271 339 z "},"I":{"ha":339,"x_min":0,"x_max":271,"o":"m 271 0 l 0 0 l 0 949 l 271 949 l 271 0 z "},"J":{"ha":1017,"x_min":0,"x_max":949,"o":"m 678 271 l 678 949 l 949 949 l 949 0 l 0 0 l 0 271 l 678 271 z "},"K":{"ha":1017,"x_min":0,"x_max":1221,"o":"m 610 407 l 1221 -203 l 814 -203 l 407 203 l 271 68 l 271 0 l 0 0 l 0 949 l 271 949 l 271 475 l 949 1153 l 949 746 l 610 407 z "},"L":{"ha":1017,"x_min":0,"x_max":949,"o":"m 0 949 l 271 949 l 271 271 l 949 271 l 949 0 l 0 0 l 0 949 z "},"M":{"ha":1017,"x_min":0,"x_max":949,"o":"m 949 0 l 678 0 l 678 678 l 610 678 l 610 0 l 339 0 l 339 678 l 271 678 l 271 0 l 0 0 l 0 949 l 949 949 l 949 0 z "},"N":{"ha":1017,"x_min":0,"x_max":949,"o":"m 271 475 l 271 0 l 0 0 l 0 1153 l 678 475 l 678 949 l 949 949 l 949 0 l 678 0 l 678 68 l 271 475 z "},"O":{"ha":1017,"x_min":0,"x_max":949,"o":"m 271 678 l 271 271 l 678 271 l 678 678 l 271 678 m 0 949 l 949 949 l 949 0 l 0 0 l 0 949 z "},"P":{"ha":1017,"x_min":0,"x_max":949,"o":"m 271 678 l 271 -271 l 0 0 l 0 949 l 949 949 l 949 339 l 339 339 l 339 610 l 678 610 l 678 678 l 271 678 z "},"Q":{"ha":1017,"x_min":0,"x_max":949,"o":"m 0 949 l 949 949 l 949 136 l 0 136 l 0 949 m 949 -203 l 475 -203 l 475 68 l 949 68 l 949 -203 m 271 678 l 271 407 l 678 407 l 678 678 l 271 678 z "},"R":{"ha":1017,"x_min":0,"x_max":1221,"o":"m 678 610 l 678 678 l 271 678 l 271 610 l 678 610 m 949 339 l 678 339 l 1221 -203 l 814 -203 l 271 339 l 271 0 l 0 0 l 0 949 l 949 949 l 949 339 z "},"S":{"ha":1017,"x_min":0,"x_max":1153,"o":"m 949 949 l 949 678 l 271 678 l 271 610 l 1153 610 l 319 -224 l 115 -20 l 475 339 l 0 339 l 0 949 l 949 949 z "},"T":{"ha":1017,"x_min":0,"x_max":949,"o":"m 610 678 l 610 -271 l 339 0 l 339 678 l 0 678 l 0 949 l 949 949 l 949 678 l 610 678 z "},"U":{"ha":1017,"x_min":0,"x_max":949,"o":"m 0 949 l 271 949 l 271 271 l 678 271 l 678 949 l 949 949 l 949 0 l 0 0 l 0 949 z "},"V":{"ha":1017,"x_min":0,"x_max":949,"o":"m 678 407 l 678 949 l 949 949 l 949 0 l 678 0 l 0 678 l 0 1085 l 678 407 z "},"W":{"ha":1017,"x_min":0,"x_max":949,"o":"m 678 271 l 678 949 l 949 949 l 949 0 l 0 0 l 0 949 l 271 949 l 271 271 l 339 271 l 339 949 l 610 949 l 610 271 l 678 271 z "},"X":{"ha":1017,"x_min":-203,"x_max":1153,"o":"m 475 678 l 746 949 l 1153 949 l 678 475 l 949 203 l 949 -203 l 475 271 l 203 0 l -203 0 l 271 475 l -203 949 l 203 949 l 475 678 z "},"Y":{"ha":1017,"x_min":0,"x_max":949,"o":"m 0 949 l 271 949 l 271 407 l 678 407 l 678 949 l 949 949 l 949 136 l 0 136 l 0 949 m 949 -203 l 475 -203 l 475 68 l 949 68 l 949 -203 z "},"Z":{"ha":1017,"x_min":0,"x_max":1153,"o":"m 475 678 l 0 678 l 0 949 l 1153 949 l 475 271 l 949 271 l 949 0 l 0 0 l 0 203 l 475 678 z "},"[":{"ha":543,"x_min":0,"x_max":475,"o":"m 475 1017 l 475 746 l 271 746 l 271 203 l 475 203 l 475 -68 l 0 -68 l 0 1017 l 475 1017 z "},"\\":{"ha":1017,"x_min":-203,"x_max":1153,"o":"m 1153 0 l 746 0 l -203 949 l 203 949 l 1153 0 z "},"]":{"ha":543,"x_min":0,"x_max":475,"o":"m 0 1017 l 475 1017 l 475 -68 l 0 -68 l 0 203 l 203 203 l 203 746 l 0 746 l 0 1017 z "},"^":{"ha":543,"x_min":0,"x_max":475,"o":"m 237 817 l 203 746 l 0 746 l 136 949 l 339 949 l 475 746 l 271 746 l 237 817 z "},"_":{"ha":678,"x_min":0,"x_max":610,"o":"m 610 0 l 0 0 l 0 271 l 610 271 l 610 0 z "},"`":{"ha":475,"x_min":0,"x_max":407,"o":"m 0 949 l 339 949 l 407 746 l 136 746 l 0 949 z "},"a":{"ha":1017,"x_min":0,"x_max":949,"o":"m 0 949 l 949 949 l 949 0 l 678 0 l 678 271 l 271 271 l 271 0 l 0 0 l 0 949 m 271 678 l 271 543 l 678 543 l 678 678 l 271 678 z "},"b":{"ha":1017,"x_min":0,"x_max":949,"o":"m 678 339 l 271 339 l 271 271 l 678 271 l 678 339 m 678 678 l 0 678 l 0 949 l 949 949 l 949 0 l 0 0 l 0 610 l 678 610 l 678 678 z "},"c":{"ha":1017,"x_min":0,"x_max":949,"o":"m 949 949 l 949 678 l 271 678 l 271 271 l 949 271 l 949 0 l 0 0 l 0 949 l 949 949 z "},"d":{"ha":1017,"x_min":0,"x_max":949,"o":"m 271 678 l 271 0 l 0 0 l 0 949 l 949 949 l 949 339 l 610 0 l 339 0 l 339 271 l 475 271 l 678 475 l 678 678 l 271 678 z "},"e":{"ha":1017,"x_min":0,"x_max":949,"o":"m 949 949 l 949 678 l 271 678 l 271 271 l 949 271 l 949 0 l 0 0 l 0 949 l 949 949 m 949 339 l 339 339 l 339 610 l 949 610 l 949 339 z "},"f":{"ha":1017,"x_min":0,"x_max":949,"o":"m 271 678 l 271 0 l 0 0 l 0 949 l 949 949 l 949 678 l 271 678 m 949 339 l 339 339 l 339 610 l 949 610 l 949 339 z "},"g":{"ha":1017,"x_min":0,"x_max":949,"o":"m 949 949 l 949 678 l 271 678 l 271 271 l 678 271 l 678 339 l 339 339 l 339 610 l 949 610 l 949 0 l 0 0 l 0 949 l 949 949 z "},"h":{"ha":1017,"x_min":0,"x_max":949,"o":"m 271 339 l 271 0 l 0 0 l 0 949 l 271 949 l 271 610 l 678 610 l 678 949 l 949 949 l 949 0 l 678 0 l 678 339 l 271 339 z "},"i":{"ha":339,"x_min":0,"x_max":271,"o":"m 271 0 l 0 0 l 0 949 l 271 949 l 271 0 z "},"j":{"ha":1017,"x_min":0,"x_max":949,"o":"m 678 271 l 678 949 l 949 949 l 949 0 l 0 0 l 0 271 l 678 271 z "},"k":{"ha":1017,"x_min":0,"x_max":1017,"o":"m 610 407 l 1017 0 l 610 0 l 407 203 l 271 68 l 271 0 l 0 0 l 0 949 l 271 949 l 271 475 l 949 1153 l 949 746 l 610 407 z "},"l":{"ha":1017,"x_min":0,"x_max":949,"o":"m 0 949 l 271 949 l 271 271 l 949 271 l 949 0 l 0 0 l 0 949 z "},"m":{"ha":1017,"x_min":0,"x_max":949,"o":"m 949 0 l 678 0 l 678 678 l 610 678 l 610 0 l 339 0 l 339 678 l 271 678 l 271 0 l 0 0 l 0 949 l 949 949 l 949 0 z "},"n":{"ha":1017,"x_min":0,"x_max":949,"o":"m 271 475 l 271 0 l 0 0 l 0 1153 l 678 475 l 678 949 l 949 949 l 949 0 l 678 0 l 678 68 l 271 475 z "},"o":{"ha":1017,"x_min":0,"x_max":949,"o":"m 0 949 l 949 949 l 949 0 l 0 0 l 0 949 m 271 678 l 271 271 l 678 271 l 678 678 l 271 678 z "},"p":{"ha":1017,"x_min":0,"x_max":949,"o":"m 271 678 l 271 0 l 0 0 l 0 949 l 949 949 l 949 339 l 339 339 l 339 610 l 678 610 l 678 678 l 271 678 z "},"q":{"ha":1017,"x_min":0,"x_max":949,"o":"m 271 678 l 271 407 l 678 407 l 678 678 l 271 678 m 0 949 l 949 949 l 949 136 l 0 136 l 0 949 m 949 -203 l 475 -203 l 475 68 l 949 68 l 949 -203 z "},"r":{"ha":1017,"x_min":0,"x_max":1017,"o":"m 678 610 l 678 678 l 271 678 l 271 610 l 678 610 m 949 339 l 678 339 l 1017 0 l 610 0 l 271 339 l 271 0 l 0 0 l 0 949 l 949 949 l 949 339 z "},"s":{"ha":1017,"x_min":0,"x_max":949,"o":"m 949 949 l 949 678 l 271 678 l 271 610 l 949 610 l 949 0 l 0 0 l 0 271 l 678 271 l 678 339 l 0 339 l 0 949 l 949 949 z "},"t":{"ha":1017,"x_min":0,"x_max":949,"o":"m 610 678 l 610 0 l 339 0 l 339 678 l 0 678 l 0 949 l 949 949 l 949 678 l 610 678 z "},"u":{"ha":1017,"x_min":0,"x_max":949,"o":"m 0 949 l 271 949 l 271 271 l 678 271 l 678 949 l 949 949 l 949 0 l 0 0 l 0 949 z "},"v":{"ha":1017,"x_min":0,"x_max":949,"o":"m 678 407 l 678 949 l 949 949 l 949 0 l 678 0 l 0 678 l 0 1085 l 678 407 z "},"w":{"ha":1017,"x_min":0,"x_max":949,"o":"m 678 271 l 678 949 l 949 949 l 949 0 l 0 0 l 0 949 l 271 949 l 271 271 l 339 271 l 339 949 l 610 949 l 610 271 l 678 271 z "},"x":{"ha":1017,"x_min":-203,"x_max":1153,"o":"m 475 678 l 746 949 l 1153 949 l 678 475 l 949 203 l 949 -203 l 475 271 l 203 0 l -203 0 l 271 475 l -203 949 l 203 949 l 475 678 z "},"y":{"ha":1017,"x_min":0,"x_max":949,"o":"m 0 949 l 271 949 l 271 610 l 678 610 l 678 949 l 949 949 l 949 0 l 136 0 l 136 271 l 678 271 l 678 339 l 0 339 l 0 949 z "},"z":{"ha":1017,"x_min":0,"x_max":1153,"o":"m 475 678 l 0 678 l 0 949 l 1153 949 l 475 271 l 949 271 l 949 0 l 0 0 l 0 203 l 475 678 z "},"{":{"ha":678,"x_min":0,"x_max":610,"o":"m 136 610 l 136 1017 l 610 1017 l 610 746 l 407 746 l 407 203 l 610 203 l 610 -68 l 136 -68 l 136 339 l 0 339 l 0 610 l 136 610 z "},"|":{"ha":339,"x_min":0,"x_max":271,"o":"m 271 -68 l 0 -68 l 0 1017 l 271 1017 l 271 -68 z "},"}":{"ha":678,"x_min":0,"x_max":610,"o":"m 475 610 l 610 610 l 610 339 l 475 339 l 475 -68 l 0 -68 l 0 203 l 203 203 l 203 746 l 0 746 l 0 1017 l 475 1017 l 475 610 z "},"~":{"ha":610,"x_min":0,"x_max":543,"o":"m 543 395 l 366 305 l 176 395 l 0 305 l 0 555 l 176 644 l 366 555 l 543 644 l 543 395 z "},"¡":{"ha":339,"x_min":0,"x_max":271,"o":"m 0 949 l 271 949 l 271 678 l 0 678 l 0 949 m 0 610 l 271 610 l 271 0 l 0 0 l 0 610 z "},"¢":{"ha":746,"x_min":0,"x_max":678,"o":"m 203 814 l 203 949 l 475 949 l 475 814 l 678 814 l 678 543 l 271 543 l 271 407 l 678 407 l 678 136 l 475 136 l 475 0 l 203 0 l 203 136 l 0 136 l 0 814 l 203 814 z "},"£":{"ha":1017,"x_min":0,"x_max":1153,"o":"m 0 0 l 0 271 l 475 271 l 407 339 l 0 339 l 0 610 l 136 610 l 0 746 l 0 949 l 949 949 l 949 678 l 475 678 l 543 610 l 949 610 l 949 339 l 814 339 l 1153 0 l 0 0 z "},"¤":{"ha":1017,"x_min":0,"x_max":1153,"o":"m 339 949 l 339 1085 l 610 1085 l 610 949 l 949 949 l 949 678 l 271 678 l 271 610 l 1153 610 l 610 68 l 610 -136 l 339 -136 l 339 0 l 136 0 l 475 339 l 0 339 l 0 949 l 339 949 z "},"¥":{"ha":1017,"x_min":0,"x_max":949,"o":"m 0 949 l 271 949 l 271 678 l 678 678 l 678 949 l 949 949 l 949 407 l 610 407 l 610 339 l 746 339 l 746 68 l 610 68 l 610 0 l 339 0 l 339 68 l 203 68 l 203 339 l 339 339 l 339 407 l 0 407 l 0 949 z "},"¦":{"ha":339,"x_min":0,"x_max":271,"o":"m 271 0 l 0 0 l 0 949 l 271 949 l 271 0 z "},"§":{"ha":1017,"x_min":0,"x_max":1153,"o":"m 949 949 l 949 678 l 271 678 l 271 610 l 1153 610 l 319 -224 l 115 -20 l 475 339 l 0 339 l 0 949 l 949 949 z "},"¨":{"ha":543,"x_min":0,"x_max":475,"o":"m 203 746 l 0 746 l 0 949 l 203 949 l 203 746 m 475 746 l 271 746 l 271 949 l 475 949 l 475 746 z "},"©":{"ha":814,"x_min":0,"x_max":743,"o":"m 372 743 q 719 540 646 743 q 743 393 743 468 l 743 347 q 545 24 743 107 q 396 0 465 0 l 347 0 q 30 190 113 0 q 0 372 0 267 q 372 743 0 743 m 109 372 q 233 133 109 189 q 355 109 286 109 l 396 109 q 624 266 570 109 q 635 355 635 315 l 635 393 q 480 621 635 568 q 369 635 427 635 q 109 372 109 635 m 374 532 q 526 448 494 532 q 532 407 532 422 l 532 401 q 526 396 532 396 l 429 396 q 377 423 416 423 l 372 423 q 320 369 320 423 q 363 320 325 320 l 382 320 q 429 345 417 320 l 526 345 q 532 339 532 344 l 532 331 q 439 217 532 248 q 388 212 407 212 l 361 212 q 217 320 243 212 q 212 372 212 347 q 374 532 212 532 z "},"«":{"ha":746,"x_min":0,"x_max":882,"o":"m 475 949 l 882 949 l 407 475 l 678 203 l 678 -203 l 0 475 l 475 949 z "},"¬":{"ha":678,"x_min":0,"x_max":610,"o":"m 339 407 l 0 407 l 0 678 l 610 678 l 610 203 l 339 203 l 339 407 z "},"®":{"ha":814,"x_min":0,"x_max":743,"o":"m 372 743 q 719 540 646 743 q 743 393 743 468 l 743 347 q 545 24 743 107 q 396 0 465 0 l 347 0 q 30 190 113 0 q 0 372 0 267 q 372 743 0 743 m 109 372 q 233 133 109 189 q 355 109 286 109 l 396 109 q 624 266 570 109 q 635 355 635 315 l 635 393 q 480 621 635 568 q 369 635 427 635 q 109 372 109 635 m 217 532 l 393 532 q 532 412 532 532 l 532 388 q 472 293 532 322 l 469 293 q 529 212 529 218 l 401 212 q 353 282 389 221 l 320 282 l 320 217 q 315 212 320 212 l 217 212 q 212 217 212 212 l 212 526 q 217 532 212 532 m 320 434 l 320 399 l 396 399 q 412 415 412 399 q 391 434 412 434 l 320 434 z "},"¯":{"ha":678,"x_min":0,"x_max":610,"o":"m 610 762 l 0 762 l 0 1034 l 610 1034 l 610 762 z "},"°":{"ha":475,"x_min":0,"x_max":407,"o":"m 0 678 l 0 814 l 136 949 l 271 949 l 407 814 l 407 678 l 271 543 l 136 543 l 0 678 m 237 712 l 237 780 l 170 780 l 170 712 l 237 712 z "},"±":{"ha":678,"x_min":0,"x_max":610,"o":"m 170 271 l 170 339 l 0 339 l 0 610 l 170 610 l 170 780 l 441 780 l 441 610 l 610 610 l 610 339 l 441 339 l 441 271 l 610 271 l 610 0 l 0 0 l 0 271 l 170 271 z "},"´":{"ha":475,"x_min":0,"x_max":407,"o":"m 407 949 l 271 746 l 0 746 l 68 949 l 407 949 z "},"µ":{"ha":1017,"x_min":0,"x_max":949,"o":"m 949 0 l 678 0 l 678 678 l 610 678 l 610 0 l 339 0 l 339 678 l 271 678 l 271 0 l 0 0 l 0 949 l 949 949 l 949 0 z "},"¶":{"ha":1017,"x_min":0,"x_max":949,"o":"m 339 339 l 0 339 l 0 949 l 949 949 l 949 0 l 678 0 l 678 678 l 271 678 l 271 610 l 610 610 l 610 0 l 339 0 l 339 339 z "},"·":{"ha":345,"x_min":0,"x_max":231,"o":"m 231 359 l 0 359 l 0 590 l 231 590 l 231 359 z "},"∙":{"ha":345,"x_min":0,"x_max":231,"o":"m 231 359 l 0 359 l 0 590 l 231 590 l 231 359 z "},"¸":{"ha":407,"x_min":0,"x_max":339,"o":"m 203 -271 l 0 -271 l 0 -68 l 136 -68 l 136 0 l 0 136 l 203 136 l 339 0 l 339 -136 l 203 -271 z "},"º":{"ha":475,"x_min":0,"x_max":407,"o":"m 0 678 l 0 814 l 136 949 l 271 949 l 407 814 l 407 678 l 271 543 l 136 543 l 0 678 m 237 712 l 237 780 l 170 780 l 170 712 l 237 712 z "},"»":{"ha":746,"x_min":-203,"x_max":678,"o":"m 203 949 l 678 475 l 0 -203 l 0 203 l 271 475 l -203 949 l 203 949 z "},"¿":{"ha":1017,"x_min":0,"x_max":949,"o":"m 271 271 l 949 271 l 949 0 l 0 0 l 0 610 l 746 610 l 746 339 l 271 339 l 271 271 m 475 949 l 746 949 l 746 678 l 475 678 l 475 949 z "},"À":{"ha":1017,"x_min":0,"x_max":949,"o":"m 0 949 l 949 949 l 949 0 l 678 0 l 678 271 l 271 271 l 271 0 l 0 0 l 0 949 m 203 1221 l 543 1221 l 610 1017 l 339 1017 l 203 1221 m 271 678 l 271 543 l 678 543 l 678 678 l 271 678 z "},"Á":{"ha":1017,"x_min":0,"x_max":949,"o":"m 0 949 l 949 949 l 949 0 l 678 0 l 678 271 l 271 271 l 271 0 l 0 0 l 0 949 m 746 1221 l 610 1017 l 339 1017 l 407 1221 l 746 1221 m 271 678 l 271 543 l 678 543 l 678 678 l 271 678 z "},"Â":{"ha":1017,"x_min":0,"x_max":949,"o":"m 0 949 l 949 949 l 949 0 l 678 0 l 678 271 l 271 271 l 271 0 l 0 0 l 0 949 m 475 1088 l 441 1017 l 237 1017 l 373 1221 l 576 1221 l 712 1017 l 509 1017 l 475 1088 m 271 678 l 271 543 l 678 543 l 678 678 l 271 678 z "},"Ã":{"ha":1017,"x_min":0,"x_max":949,"o":"m 0 949 l 949 949 l 949 0 l 678 0 l 678 271 l 271 271 l 271 0 l 0 0 l 0 949 m 678 1031 l 546 963 l 404 1031 l 271 963 l 271 1153 l 404 1221 l 546 1153 l 678 1221 l 678 1031 m 271 678 l 271 543 l 678 543 l 678 678 l 271 678 z "},"Ä":{"ha":1017,"x_min":0,"x_max":949,"o":"m 0 949 l 949 949 l 949 0 l 678 0 l 678 271 l 271 271 l 271 0 l 0 0 l 0 949 m 712 1017 l 509 1017 l 509 1221 l 712 1221 l 712 1017 m 441 1017 l 237 1017 l 237 1221 l 441 1221 l 441 1017 m 271 678 l 271 543 l 678 543 l 678 678 l 271 678 z "},"Å":{"ha":1017,"x_min":0,"x_max":949,"o":"m 509 983 l 509 1051 l 441 1051 l 441 983 l 509 983 m 0 949 l 271 949 l 271 1085 l 407 1221 l 543 1221 l 678 1085 l 678 949 l 949 949 l 949 0 l 678 0 l 678 271 l 271 271 l 271 0 l 0 0 l 0 949 m 271 678 l 271 543 l 678 543 l 678 678 l 271 678 z "},"Æ":{"ha":1695,"x_min":0,"x_max":1933,"o":"m 1628 339 l 1017 339 l 1017 610 l 1628 610 l 1628 339 m 271 678 l 271 543 l 678 543 l 678 678 l 271 678 m 0 949 l 1628 949 l 1628 678 l 949 678 l 949 271 l 1662 271 l 1933 0 l 678 0 l 678 271 l 271 271 l 271 0 l 0 0 l 0 949 z "},"Ç":{"ha":1017,"x_min":0,"x_max":949,"o":"m 644 0 l 644 -136 l 509 -271 l 305 -271 l 305 -68 l 441 -68 l 441 0 l 0 0 l 0 949 l 949 949 l 949 678 l 271 678 l 271 271 l 949 271 l 949 0 l 644 0 z "},"È":{"ha":1017,"x_min":0,"x_max":1255,"o":"m 949 949 l 949 678 l 271 678 l 271 271 l 983 271 l 1255 0 l 0 0 l 0 949 l 949 949 m 949 339 l 339 339 l 339 610 l 949 610 l 949 339 m 271 1221 l 610 1221 l 678 1017 l 407 1017 l 271 1221 z "},"É":{"ha":1017,"x_min":0,"x_max":1255,"o":"m 949 949 l 949 678 l 271 678 l 271 271 l 983 271 l 1255 0 l 0 0 l 0 949 l 949 949 m 949 339 l 339 339 l 339 610 l 949 610 l 949 339 m 746 1221 l 610 1017 l 339 1017 l 407 1221 l 746 1221 z "},"Ê":{"ha":1017,"x_min":0,"x_max":1255,"o":"m 949 949 l 949 678 l 271 678 l 271 271 l 983 271 l 1255 0 l 0 0 l 0 949 l 949 949 m 949 339 l 339 339 l 339 610 l 949 610 l 949 339 m 475 1088 l 441 1017 l 237 1017 l 373 1221 l 576 1221 l 712 1017 l 509 1017 l 475 1088 z "},"Ë":{"ha":1017,"x_min":0,"x_max":1255,"o":"m 949 949 l 949 678 l 271 678 l 271 271 l 983 271 l 1255 0 l 0 0 l 0 949 l 949 949 m 949 339 l 339 339 l 339 610 l 949 610 l 949 339 m 441 1017 l 237 1017 l 237 1221 l 441 1221 l 441 1017 m 712 1017 l 509 1017 l 509 1221 l 712 1221 l 712 1017 z "},"Ì":{"ha":339,"x_min":-136,"x_max":271,"o":"m 271 0 l 0 0 l 0 949 l 271 949 l 271 0 m -136 1221 l 203 1221 l 271 1017 l 0 1017 l -136 1221 z "},"Í":{"ha":339,"x_min":0,"x_max":407,"o":"m 271 0 l 0 0 l 0 949 l 271 949 l 271 0 m 407 1221 l 271 1017 l 0 1017 l 68 1221 l 407 1221 z "},"Î":{"ha":339,"x_min":-102,"x_max":373,"o":"m 271 0 l 0 0 l 0 949 l 271 949 l 271 0 m 136 1088 l 102 1017 l -102 1017 l 34 1221 l 237 1221 l 373 1017 l 170 1017 l 136 1088 z "},"Ï":{"ha":339,"x_min":-102,"x_max":373,"o":"m 271 0 l 0 0 l 0 949 l 271 949 l 271 0 m 102 1017 l -102 1017 l -102 1221 l 102 1221 l 102 1017 m 373 1017 l 170 1017 l 170 1221 l 373 1221 l 373 1017 z "},"Ð":{"ha":1153,"x_min":0,"x_max":1085,"o":"m 1085 339 l 475 -271 l 475 136 l 814 475 l 814 678 l 407 678 l 407 610 l 543 610 l 543 339 l 407 339 l 407 0 l 136 0 l 136 339 l 0 339 l 0 610 l 136 610 l 136 949 l 1085 949 l 1085 339 z "},"Ñ":{"ha":1017,"x_min":0,"x_max":949,"o":"m 271 475 l 271 0 l 0 0 l 0 1153 l 678 475 l 678 949 l 949 949 l 949 0 l 678 0 l 678 68 l 271 475 m 678 1015 l 546 947 l 404 1015 l 271 947 l 271 1137 l 404 1204 l 546 1137 l 678 1204 l 678 1015 z "},"Ò":{"ha":1017,"x_min":0,"x_max":949,"o":"m 271 678 l 271 271 l 678 271 l 678 678 l 271 678 m 0 949 l 949 949 l 949 0 l 0 0 l 0 949 m 203 1221 l 543 1221 l 610 1017 l 339 1017 l 203 1221 z "},"Ó":{"ha":1017,"x_min":0,"x_max":949,"o":"m 271 678 l 271 271 l 678 271 l 678 678 l 271 678 m 0 949 l 949 949 l 949 0 l 0 0 l 0 949 m 746 1221 l 610 1017 l 339 1017 l 407 1221 l 746 1221 z "},"Ô":{"ha":1017,"x_min":0,"x_max":949,"o":"m 271 678 l 271 271 l 678 271 l 678 678 l 271 678 m 0 949 l 949 949 l 949 0 l 0 0 l 0 949 m 475 1088 l 441 1017 l 237 1017 l 373 1221 l 576 1221 l 712 1017 l 509 1017 l 475 1088 z "},"Õ":{"ha":1017,"x_min":0,"x_max":949,"o":"m 271 678 l 271 271 l 678 271 l 678 678 l 271 678 m 0 949 l 949 949 l 949 0 l 0 0 l 0 949 m 678 1031 l 546 963 l 404 1031 l 271 963 l 271 1153 l 404 1221 l 546 1153 l 678 1221 l 678 1031 z "},"Ö":{"ha":1017,"x_min":0,"x_max":949,"o":"m 271 678 l 271 271 l 678 271 l 678 678 l 271 678 m 0 949 l 949 949 l 949 0 l 0 0 l 0 949 m 441 1017 l 237 1017 l 237 1221 l 441 1221 l 441 1017 m 712 1017 l 509 1017 l 509 1221 l 712 1221 l 712 1017 z "},"×":{"ha":678,"x_min":-7,"x_max":617,"o":"m 497 475 l 617 355 l 425 163 l 305 283 l 185 163 l -7 355 l 113 475 l -7 595 l 185 787 l 305 667 l 425 787 l 617 595 l 497 475 z "},"Ø":{"ha":1017,"x_min":0,"x_max":949,"o":"m 0 0 l 0 949 l 949 949 l 949 0 l 0 0 m 475 271 l 678 271 l 678 475 l 475 271 m 271 678 l 271 475 l 475 678 l 271 678 z "},"Ù":{"ha":1017,"x_min":0,"x_max":949,"o":"m 0 949 l 271 949 l 271 271 l 678 271 l 678 949 l 949 949 l 949 0 l 0 0 l 0 949 m 203 1221 l 543 1221 l 610 1017 l 339 1017 l 203 1221 z "},"Ú":{"ha":1017,"x_min":0,"x_max":949,"o":"m 0 949 l 271 949 l 271 271 l 678 271 l 678 949 l 949 949 l 949 0 l 0 0 l 0 949 m 746 1221 l 610 1017 l 339 1017 l 407 1221 l 746 1221 z "},"Û":{"ha":1017,"x_min":0,"x_max":949,"o":"m 0 949 l 271 949 l 271 271 l 678 271 l 678 949 l 949 949 l 949 0 l 0 0 l 0 949 m 475 1088 l 441 1017 l 237 1017 l 373 1221 l 576 1221 l 712 1017 l 509 1017 l 475 1088 z "},"Ü":{"ha":1017,"x_min":0,"x_max":949,"o":"m 0 949 l 271 949 l 271 271 l 678 271 l 678 949 l 949 949 l 949 0 l 0 0 l 0 949 m 441 1017 l 237 1017 l 237 1221 l 441 1221 l 441 1017 m 712 1017 l 509 1017 l 509 1221 l 712 1221 l 712 1017 z "},"Ý":{"ha":1017,"x_min":0,"x_max":949,"o":"m 0 949 l 271 949 l 271 407 l 678 407 l 678 949 l 949 949 l 949 136 l 0 136 l 0 949 m 949 -203 l 475 -203 l 475 68 l 949 68 l 949 -203 m 746 1221 l 610 1017 l 339 1017 l 407 1221 l 746 1221 z "},"Þ":{"ha":1017,"x_min":0,"x_max":949,"o":"m 271 543 l 271 -271 l 0 0 l 0 949 l 271 949 l 271 814 l 949 814 l 949 136 l 339 136 l 339 407 l 678 407 l 678 543 l 271 543 z "},"ß":{"ha":1017,"x_min":0,"x_max":949,"o":"m 339 0 l 339 271 l 678 271 l 678 339 l 339 339 l 339 610 l 678 610 l 678 678 l 271 678 l 271 -271 l 0 0 l 0 949 l 949 949 l 949 0 l 339 0 z "},"à":{"ha":1017,"x_min":0,"x_max":949,"o":"m 0 949 l 949 949 l 949 0 l 678 0 l 678 271 l 271 271 l 271 0 l 0 0 l 0 949 m 203 1221 l 543 1221 l 610 1017 l 339 1017 l 203 1221 m 271 678 l 271 543 l 678 543 l 678 678 l 271 678 z "},"á":{"ha":1017,"x_min":0,"x_max":949,"o":"m 0 949 l 949 949 l 949 0 l 678 0 l 678 271 l 271 271 l 271 0 l 0 0 l 0 949 m 746 1221 l 610 1017 l 339 1017 l 407 1221 l 746 1221 m 271 678 l 271 543 l 678 543 l 678 678 l 271 678 z "},"â":{"ha":1017,"x_min":0,"x_max":949,"o":"m 0 949 l 949 949 l 949 0 l 678 0 l 678 271 l 271 271 l 271 0 l 0 0 l 0 949 m 475 1088 l 441 1017 l 237 1017 l 373 1221 l 576 1221 l 712 1017 l 509 1017 l 475 1088 m 271 678 l 271 543 l 678 543 l 678 678 l 271 678 z "},"ã":{"ha":1017,"x_min":0,"x_max":949,"o":"m 0 949 l 949 949 l 949 0 l 678 0 l 678 271 l 271 271 l 271 0 l 0 0 l 0 949 m 678 1031 l 546 963 l 404 1031 l 271 963 l 271 1153 l 404 1221 l 546 1153 l 678 1221 l 678 1031 m 271 678 l 271 543 l 678 543 l 678 678 l 271 678 z "},"ä":{"ha":1017,"x_min":0,"x_max":949,"o":"m 0 949 l 949 949 l 949 0 l 678 0 l 678 271 l 271 271 l 271 0 l 0 0 l 0 949 m 712 1017 l 509 1017 l 509 1221 l 712 1221 l 712 1017 m 441 1017 l 237 1017 l 237 1221 l 441 1221 l 441 1017 m 271 678 l 271 543 l 678 543 l 678 678 l 271 678 z "},"å":{"ha":1017,"x_min":0,"x_max":949,"o":"m 509 983 l 509 1051 l 441 1051 l 441 983 l 509 983 m 0 949 l 271 949 l 271 1085 l 407 1221 l 543 1221 l 678 1085 l 678 949 l 949 949 l 949 0 l 678 0 l 678 271 l 271 271 l 271 0 l 0 0 l 0 949 m 271 678 l 271 543 l 678 543 l 678 678 l 271 678 z "},"æ":{"ha":1695,"x_min":0,"x_max":1628,"o":"m 1628 339 l 1017 339 l 1017 610 l 1628 610 l 1628 339 m 271 678 l 271 543 l 678 543 l 678 678 l 271 678 m 0 949 l 1628 949 l 1628 678 l 949 678 l 949 271 l 1628 271 l 1628 0 l 678 0 l 678 271 l 271 271 l 271 0 l 0 0 l 0 949 z "},"ç":{"ha":1017,"x_min":0,"x_max":949,"o":"m 644 0 l 644 -136 l 509 -271 l 305 -271 l 305 -68 l 441 -68 l 441 0 l 0 0 l 0 949 l 949 949 l 949 678 l 271 678 l 271 271 l 949 271 l 949 0 l 644 0 z "},"è":{"ha":1017,"x_min":0,"x_max":949,"o":"m 949 339 l 339 339 l 339 610 l 949 610 l 949 339 m 271 1221 l 610 1221 l 678 1017 l 407 1017 l 271 1221 m 949 949 l 949 678 l 271 678 l 271 271 l 949 271 l 949 0 l 0 0 l 0 949 l 949 949 z "},"é":{"ha":1017,"x_min":0,"x_max":949,"o":"m 949 339 l 339 339 l 339 610 l 949 610 l 949 339 m 746 1221 l 610 1017 l 339 1017 l 407 1221 l 746 1221 m 949 949 l 949 678 l 271 678 l 271 271 l 949 271 l 949 0 l 0 0 l 0 949 l 949 949 z "},"ê":{"ha":1017,"x_min":0,"x_max":949,"o":"m 949 339 l 339 339 l 339 610 l 949 610 l 949 339 m 475 1088 l 441 1017 l 237 1017 l 373 1221 l 576 1221 l 712 1017 l 509 1017 l 475 1088 m 949 949 l 949 678 l 271 678 l 271 271 l 949 271 l 949 0 l 0 0 l 0 949 l 949 949 z "},"ë":{"ha":1017,"x_min":0,"x_max":949,"o":"m 949 339 l 339 339 l 339 610 l 949 610 l 949 339 m 441 1017 l 237 1017 l 237 1221 l 441 1221 l 441 1017 m 712 1017 l 509 1017 l 509 1221 l 712 1221 l 712 1017 m 949 949 l 949 678 l 271 678 l 271 271 l 949 271 l 949 0 l 0 0 l 0 949 l 949 949 z "},"ì":{"ha":339,"x_min":-136,"x_max":271,"o":"m 271 0 l 0 0 l 0 949 l 271 949 l 271 0 m -136 1221 l 203 1221 l 271 1017 l 0 1017 l -136 1221 z "},"í":{"ha":339,"x_min":0,"x_max":407,"o":"m 271 0 l 0 0 l 0 949 l 271 949 l 271 0 m 407 1221 l 271 1017 l 0 1017 l 68 1221 l 407 1221 z "},"î":{"ha":339,"x_min":-102,"x_max":373,"o":"m 271 0 l 0 0 l 0 949 l 271 949 l 271 0 m 136 1088 l 102 1017 l -102 1017 l 34 1221 l 237 1221 l 373 1017 l 170 1017 l 136 1088 z "},"ï":{"ha":339,"x_min":-102,"x_max":373,"o":"m 271 0 l 0 0 l 0 949 l 271 949 l 271 0 m 102 1017 l -102 1017 l -102 1221 l 102 1221 l 102 1017 m 373 1017 l 170 1017 l 170 1221 l 373 1221 l 373 1017 z "},"ð":{"ha":1153,"x_min":0,"x_max":1085,"o":"m 1085 339 l 475 -271 l 475 136 l 814 475 l 814 678 l 407 678 l 407 610 l 543 610 l 543 339 l 407 339 l 407 0 l 136 0 l 136 339 l 0 339 l 0 610 l 136 610 l 136 949 l 1085 949 l 1085 339 z "},"ñ":{"ha":1017,"x_min":0,"x_max":949,"o":"m 271 475 l 271 0 l 0 0 l 0 1153 l 678 475 l 678 949 l 949 949 l 949 0 l 678 0 l 678 68 l 271 475 m 678 1015 l 546 947 l 404 1015 l 271 947 l 271 1137 l 404 1204 l 546 1137 l 678 1204 l 678 1015 z "},"ò":{"ha":1017,"x_min":0,"x_max":949,"o":"m 0 949 l 949 949 l 949 0 l 0 0 l 0 949 m 271 678 l 271 271 l 678 271 l 678 678 l 271 678 m 203 1221 l 543 1221 l 610 1017 l 339 1017 l 203 1221 z "},"ó":{"ha":1017,"x_min":0,"x_max":949,"o":"m 0 949 l 949 949 l 949 0 l 0 0 l 0 949 m 271 678 l 271 271 l 678 271 l 678 678 l 271 678 m 746 1221 l 610 1017 l 339 1017 l 407 1221 l 746 1221 z "},"ô":{"ha":1017,"x_min":0,"x_max":949,"o":"m 0 949 l 949 949 l 949 0 l 0 0 l 0 949 m 271 678 l 271 271 l 678 271 l 678 678 l 271 678 m 475 1088 l 441 1017 l 237 1017 l 373 1221 l 576 1221 l 712 1017 l 509 1017 l 475 1088 z "},"õ":{"ha":1017,"x_min":0,"x_max":949,"o":"m 0 949 l 949 949 l 949 0 l 0 0 l 0 949 m 271 678 l 271 271 l 678 271 l 678 678 l 271 678 m 678 1031 l 546 963 l 404 1031 l 271 963 l 271 1153 l 404 1221 l 546 1153 l 678 1221 l 678 1031 z "},"ö":{"ha":1017,"x_min":0,"x_max":949,"o":"m 0 949 l 949 949 l 949 0 l 0 0 l 0 949 m 271 678 l 271 271 l 678 271 l 678 678 l 271 678 m 441 1017 l 237 1017 l 237 1221 l 441 1221 l 441 1017 m 712 1017 l 509 1017 l 509 1221 l 712 1221 l 712 1017 z "},"÷":{"ha":1017,"x_min":-203,"x_max":1153,"o":"m 1153 949 l 203 0 l -203 0 l 746 949 l 1153 949 z "},"ø":{"ha":1017,"x_min":0,"x_max":949,"o":"m 0 0 l 0 949 l 949 949 l 949 0 l 0 0 m 475 271 l 678 271 l 678 475 l 475 271 m 271 678 l 271 475 l 475 678 l 271 678 z "},"ù":{"ha":1017,"x_min":0,"x_max":949,"o":"m 0 949 l 271 949 l 271 271 l 678 271 l 678 949 l 949 949 l 949 0 l 0 0 l 0 949 m 203 1221 l 543 1221 l 610 1017 l 339 1017 l 203 1221 z "},"ú":{"ha":1017,"x_min":0,"x_max":949,"o":"m 0 949 l 271 949 l 271 271 l 678 271 l 678 949 l 949 949 l 949 0 l 0 0 l 0 949 m 746 1221 l 610 1017 l 339 1017 l 407 1221 l 746 1221 z "},"û":{"ha":1017,"x_min":0,"x_max":949,"o":"m 0 949 l 271 949 l 271 271 l 678 271 l 678 949 l 949 949 l 949 0 l 0 0 l 0 949 m 475 1088 l 441 1017 l 237 1017 l 373 1221 l 576 1221 l 712 1017 l 509 1017 l 475 1088 z "},"ü":{"ha":1017,"x_min":0,"x_max":949,"o":"m 0 949 l 271 949 l 271 271 l 678 271 l 678 949 l 949 949 l 949 0 l 0 0 l 0 949 m 441 1017 l 237 1017 l 237 1221 l 441 1221 l 441 1017 m 712 1017 l 509 1017 l 509 1221 l 712 1221 l 712 1017 z "},"ý":{"ha":1017,"x_min":0,"x_max":949,"o":"m 746 1221 l 610 1017 l 339 1017 l 407 1221 l 746 1221 m 0 949 l 271 949 l 271 610 l 678 610 l 678 949 l 949 949 l 949 0 l 136 0 l 136 271 l 678 271 l 678 339 l 0 339 l 0 949 z "},"þ":{"ha":1017,"x_min":0,"x_max":949,"o":"m 271 543 l 271 0 l 0 0 l 0 949 l 271 949 l 271 814 l 949 814 l 949 136 l 339 136 l 339 407 l 678 407 l 678 543 l 271 543 z "},"ÿ":{"ha":1017,"x_min":0,"x_max":949,"o":"m 441 1017 l 237 1017 l 237 1221 l 441 1221 l 441 1017 m 712 1017 l 509 1017 l 509 1221 l 712 1221 l 712 1017 m 0 949 l 271 949 l 271 610 l 678 610 l 678 949 l 949 949 l 949 0 l 136 0 l 136 271 l 678 271 l 678 339 l 0 339 l 0 949 z "},"ı":{"ha":339,"x_min":0,"x_max":271,"o":"m 271 0 l 0 0 l 0 949 l 271 949 l 271 0 z "},"ˆ":{"ha":543,"x_min":0,"x_max":475,"o":"m 237 817 l 203 746 l 0 746 l 136 949 l 339 949 l 475 746 l 271 746 l 237 817 z "},"ˇ":{"ha":543,"x_min":0,"x_max":475,"o":"m 237 878 l 271 949 l 475 949 l 339 746 l 136 746 l 0 949 l 203 949 l 237 878 z "},"ˉ":{"ha":694,"x_min":0,"x_max":0,"o":""},"˘":{"ha":694,"x_min":0,"x_max":0,"o":""},"˙":{"ha":694,"x_min":0,"x_max":0,"o":""},"˚":{"ha":475,"x_min":0,"x_max":407,"o":"m 0 678 l 0 814 l 136 949 l 271 949 l 407 814 l 407 678 l 271 543 l 136 543 l 0 678 m 237 712 l 237 780 l 170 780 l 170 712 l 237 712 z "},"˛":{"ha":694,"x_min":0,"x_max":0,"o":""},"˜":{"ha":475,"x_min":0,"x_max":407,"o":"m 407 760 l 275 692 l 132 760 l 0 692 l 0 882 l 132 949 l 275 882 l 407 949 l 407 760 z "},"˝":{"ha":694,"x_min":0,"x_max":0,"o":""},"–":{"ha":814,"x_min":0,"x_max":746,"o":"m 746 339 l 0 339 l 0 610 l 746 610 l 746 339 z "},"—":{"ha":1153,"x_min":0,"x_max":1085,"o":"m 1085 339 l 0 339 l 0 610 l 1085 610 l 1085 339 z "},"‘":{"ha":339,"x_min":0,"x_max":271,"o":"m 271 543 l 0 543 l 0 949 l 271 949 l 271 543 z "},"’":{"ha":339,"x_min":0,"x_max":271,"o":"m 271 543 l 0 543 l 0 949 l 271 949 l 271 543 z "},"‚":{"ha":339,"x_min":0,"x_max":271,"o":"m 271 -203 l 0 -203 l 0 203 l 271 203 l 271 -203 z "},"“":{"ha":678,"x_min":0,"x_max":610,"o":"m 271 543 l 0 543 l 0 949 l 271 949 l 271 543 m 610 543 l 339 543 l 339 949 l 610 949 l 610 543 z "},"”":{"ha":678,"x_min":0,"x_max":610,"o":"m 271 543 l 0 543 l 0 949 l 271 949 l 271 543 m 610 543 l 339 543 l 339 949 l 610 949 l 610 543 z "},"„":{"ha":678,"x_min":0,"x_max":610,"o":"m 271 -203 l 0 -203 l 0 203 l 271 203 l 271 -203 m 610 -203 l 339 -203 l 339 203 l 610 203 l 610 -203 z "},"•":{"ha":694,"x_min":0,"x_max":540,"o":"m 540 205 l 0 205 l 0 745 l 540 745 l 540 205 z "},"…":{"ha":1017,"x_min":0,"x_max":949,"o":"m 271 0 l 0 0 l 0 271 l 271 271 l 271 0 m 610 0 l 339 0 l 339 271 l 610 271 l 610 0 m 949 0 l 678 0 l 678 271 l 949 271 l 949 0 z "},"‹":{"ha":746,"x_min":0,"x_max":882,"o":"m 475 949 l 882 949 l 407 475 l 678 203 l 678 -203 l 0 475 l 475 949 z "},"›":{"ha":746,"x_min":-203,"x_max":678,"o":"m 203 949 l 678 475 l 0 -203 l 0 203 l 271 475 l -203 949 l 203 949 z "},"⁄":{"ha":1017,"x_min":-203,"x_max":1153,"o":"m 1153 949 l 203 0 l -203 0 l 746 949 l 1153 949 z "},"∕":{"ha":1017,"x_min":-203,"x_max":1153,"o":"m 1153 949 l 203 0 l -203 0 l 746 949 l 1153 949 z "},"₣":{"ha":688,"x_min":0,"x_max":0,"o":""},"₤":{"ha":1017,"x_min":0,"x_max":1153,"o":"m 0 0 l 0 271 l 475 271 l 407 339 l 0 339 l 0 610 l 136 610 l 0 746 l 0 949 l 949 949 l 949 678 l 475 678 l 543 610 l 949 610 l 949 339 l 814 339 l 1153 0 l 0 0 z "},"₧":{"ha":2346,"x_min":0,"x_max":2279,"o":"m 854 678 l 854 339 l 305 339 l 305 610 l 610 610 l 610 678 l 244 678 l 244 -271 l 0 0 l 0 949 l 2279 949 l 2279 678 l 1600 678 l 1600 610 l 2279 610 l 2279 0 l 1329 0 l 1329 271 l 2007 271 l 2007 339 l 1329 339 l 1329 678 l 1227 678 l 1227 0 l 956 0 l 956 678 l 854 678 z "},"€":{"ha":1017,"x_min":0,"x_max":949,"o":"m 68 631 l 68 949 l 949 949 l 949 678 l 339 678 l 339 631 l 814 631 l 814 495 l 339 495 l 339 454 l 814 454 l 814 319 l 339 319 l 339 271 l 949 271 l 949 0 l 68 0 l 68 319 l 0 319 l 0 454 l 68 454 l 68 495 l 0 495 l 0 631 l 68 631 z "},"№":{"ha":1492,"x_min":0,"x_max":1424,"o":"m 1255 712 l 1255 780 l 1187 780 l 1187 712 l 1255 712 m 271 475 l 271 0 l 0 0 l 0 1153 l 678 475 l 678 949 l 949 949 l 949 0 l 678 0 l 678 68 l 271 475 m 1017 678 l 1017 814 l 1153 949 l 1289 949 l 1424 814 l 1424 678 l 1289 543 l 1153 543 l 1017 678 m 1424 271 l 1017 271 l 1017 475 l 1424 475 l 1424 271 z "},"™":{"ha":882,"x_min":0,"x_max":814,"o":"m 387 841 l 275 841 l 275 461 l 153 570 l 153 841 l 0 841 l 0 949 l 814 949 l 814 570 l 692 570 l 692 841 l 661 841 l 661 570 l 539 570 l 539 841 l 509 841 l 509 570 l 387 570 l 387 841 z "},"−":{"ha":678,"x_min":0,"x_max":610,"o":"m 610 339 l 0 339 l 0 610 l 610 610 l 610 339 z "},"‰":{"ha":1356,"x_min":-203,"x_max":1289,"o":"m 1153 949 l 203 0 l -203 0 l 746 949 l 1153 949 m 271 678 l 0 678 l 0 949 l 271 949 l 271 678 m 949 0 l 678 0 l 678 271 l 949 271 l 949 0 m 1289 0 l 1017 0 l 1017 271 l 1289 271 l 1289 0 z "},"Œ":{"ha":1695,"x_min":0,"x_max":1933,"o":"m 0 0 l 0 949 l 1628 949 l 1628 678 l 949 678 l 949 271 l 1662 271 l 1933 0 l 0 0 m 1628 339 l 1017 339 l 1017 610 l 1628 610 l 1628 339 m 678 678 l 271 678 l 271 271 l 678 271 l 678 678 z "},"œ":{"ha":1695,"x_min":0,"x_max":1628,"o":"m 0 0 l 0 949 l 1628 949 l 1628 678 l 949 678 l 949 271 l 1628 271 l 1628 0 l 0 0 m 1628 339 l 1017 339 l 1017 610 l 1628 610 l 1628 339 m 678 678 l 271 678 l 271 271 l 678 271 l 678 678 z "}}}
